# xmcd
#
# Track frame offsets:
#	150
#	19757
#	32789
#	50236
#	65333
#	85450
#	97162
#	112621
#	131528
#	149850
#	169172
#
# Disc length: 2531 seconds
#
# Revision: 0
# Processed by: cddbd v1.5.2PL0 Copyright (c) Steve Scherf et al.
# Submitted via: audiograbber 1.83.01
#
DISCID=9f09e10b
DTITLE=Billy Ray Cyrus - Shot Full Of Love
DYEAR=1998
DGENRE=Country
TTITLE0=How's My World Treatin' You
TTITLE1=Under The Hood
TTITLE2=Give My Heart To You
TTITLE3=Busy Man
TTITLE4=Shot Full Of Love
TTITLE5=Rock This Planet
TTITLE6=Missing You
TTITLE7=Touchy Subject
TTITLE8=His Shoes
TTITLE9=Time For Letting Go
TTITLE10=The American Dream
EXTD=
EXTT0=
EXTT1=
EXTT2=
EXTT3=
EXTT4=
EXTT5=
EXTT6=
EXTT7=
EXTT8=
EXTT9=
EXTT10=
PLAYORDER=
